<svg width="121" height="36" viewBox="0 0 121 36" fill="none" xmlns="http://www.w3.org/2000/svg">
<path d="M0.784 30.632V23.624L21.808 16.184V20.216L0.784 12.776V5.768L24.448 14.504V21.896L0.784 30.632ZM40.114 35.672C37.778 35.672 35.442 35.384 33.106 34.808C30.802 34.232 28.786 33.416 27.058 32.36L30.514 25.208C31.858 26.104 33.346 26.792 34.978 27.272C36.642 27.752 38.258 27.992 39.826 27.992C41.458 27.992 42.754 27.688 43.714 27.08C44.674 26.472 45.154 25.608 45.154 24.488C45.154 23.496 44.754 22.712 43.954 22.136C43.154 21.528 41.842 21.224 40.018 21.224H36.034V15.224L45.058 5.48L45.97 8.744H28.786V1.4H53.074V7.352L44.05 17.096L39.394 14.456H41.986C46.178 14.456 49.346 15.4 51.49 17.288C53.666 19.144 54.754 21.544 54.754 24.488C54.754 26.408 54.226 28.216 53.17 29.912C52.146 31.608 50.562 33 48.418 34.088C46.274 35.144 43.506 35.672 40.114 35.672ZM72.6359 35.672C69.7559 35.672 67.1959 34.984 64.9559 33.608C62.7479 32.232 61.0039 30.248 59.7239 27.656C58.4439 25.064 57.8039 21.912 57.8039 18.2C57.8039 14.488 58.4439 11.336 59.7239 8.744C61.0039 6.152 62.7479 4.168 64.9559 2.792C67.1959 1.416 69.7559 0.727998 72.6359 0.727998C75.4839 0.727998 78.0119 1.416 80.2199 2.792C82.4599 4.168 84.2199 6.152 85.4999 8.744C86.7799 11.336 87.4199 14.488 87.4199 18.2C87.4199 21.912 86.7799 25.064 85.4999 27.656C84.2199 30.248 82.4599 32.232 80.2199 33.608C78.0119 34.984 75.4839 35.672 72.6359 35.672ZM72.6359 27.896C73.6599 27.896 74.5559 27.576 75.3239 26.936C76.1239 26.296 76.7479 25.272 77.1959 23.864C77.6439 22.424 77.8679 20.536 77.8679 18.2C77.8679 15.832 77.6439 13.944 77.1959 12.536C76.7479 11.128 76.1239 10.104 75.3239 9.464C74.5559 8.824 73.6599 8.504 72.6359 8.504C71.6119 8.504 70.6999 8.824 69.8999 9.464C69.1319 10.104 68.5079 11.128 68.0279 12.536C67.5799 13.944 67.3559 15.832 67.3559 18.2C67.3559 20.536 67.5799 22.424 68.0279 23.864C68.5079 25.272 69.1319 26.296 69.8999 26.936C70.6999 27.576 71.6119 27.896 72.6359 27.896ZM105.495 35.672C102.615 35.672 100.055 34.984 97.8153 33.608C95.6073 32.232 93.8633 30.248 92.5833 27.656C91.3033 25.064 90.6633 21.912 90.6633 18.2C90.6633 14.488 91.3033 11.336 92.5833 8.744C93.8633 6.152 95.6073 4.168 97.8153 2.792C100.055 1.416 102.615 0.727998 105.495 0.727998C108.343 0.727998 110.871 1.416 113.079 2.792C115.319 4.168 117.079 6.152 118.359 8.744C119.639 11.336 120.279 14.488 120.279 18.2C120.279 21.912 119.639 25.064 118.359 27.656C117.079 30.248 115.319 32.232 113.079 33.608C110.871 34.984 108.343 35.672 105.495 35.672ZM105.495 27.896C106.519 27.896 107.415 27.576 108.183 26.936C108.983 26.296 109.607 25.272 110.055 23.864C110.503 22.424 110.727 20.536 110.727 18.2C110.727 15.832 110.503 13.944 110.055 12.536C109.607 11.128 108.983 10.104 108.183 9.464C107.415 8.824 106.519 8.504 105.495 8.504C104.471 8.504 103.559 8.824 102.759 9.464C101.991 10.104 101.367 11.128 100.887 12.536C100.439 13.944 100.215 15.832 100.215 18.2C100.215 20.536 100.439 22.424 100.887 23.864C101.367 25.272 101.991 26.296 102.759 26.936C103.559 27.576 104.471 27.896 105.495 27.896Z" fill="#1178B2" fill-opacity="0.5"/>
</svg>
