<svg width="183" height="42" viewBox="0 0 183 42" fill="none" xmlns="http://www.w3.org/2000/svg">
<path d="M2.784 29.632V22.624L23.808 15.184V19.216L2.784 11.776V4.768L26.448 13.504V20.896L2.784 29.632ZM42.642 34.672C40.338 34.672 38.018 34.384 35.682 33.808C33.346 33.232 31.33 32.416 29.634 31.36L33.042 24.208C34.418 25.104 35.906 25.792 37.506 26.272C39.138 26.752 40.754 26.992 42.354 26.992C43.954 26.992 45.25 26.688 46.242 26.08C47.234 25.44 47.73 24.56 47.73 23.44C47.73 22.768 47.538 22.176 47.154 21.664C46.77 21.12 46.114 20.72 45.186 20.464C44.258 20.176 42.93 20.032 41.202 20.032H32.082L33.762 0.399998H55.17V7.744H37.122L41.97 3.568L40.866 16.816L36.018 12.64H43.458C46.786 12.64 49.458 13.12 51.474 14.08C53.49 15.008 54.962 16.272 55.89 17.872C56.818 19.44 57.282 21.216 57.282 23.2C57.282 25.184 56.754 27.056 55.698 28.816C54.674 30.544 53.09 31.952 50.946 33.04C48.802 34.128 46.034 34.672 42.642 34.672ZM60.3263 41.536L63.9263 29.056L65.2223 34.24C63.6223 34.24 62.3103 33.776 61.2863 32.848C60.2623 31.888 59.7503 30.608 59.7503 29.008C59.7503 27.344 60.2623 26.032 61.2863 25.072C62.3423 24.112 63.6543 23.632 65.2223 23.632C66.7903 23.632 68.0863 24.128 69.1103 25.12C70.1343 26.08 70.6463 27.376 70.6463 29.008C70.6463 29.456 70.6143 29.904 70.5503 30.352C70.4863 30.8 70.3423 31.344 70.1183 31.984C69.8943 32.624 69.5423 33.472 69.0623 34.528L66.0383 41.536H60.3263ZM85.392 34.672C83.088 34.672 80.768 34.384 78.432 33.808C76.096 33.232 74.08 32.416 72.384 31.36L75.792 24.208C77.168 25.104 78.656 25.792 80.256 26.272C81.888 26.752 83.504 26.992 85.104 26.992C86.704 26.992 88 26.688 88.992 26.08C89.984 25.44 90.48 24.56 90.48 23.44C90.48 22.768 90.288 22.176 89.904 21.664C89.52 21.12 88.864 20.72 87.936 20.464C87.008 20.176 85.68 20.032 83.952 20.032H74.832L76.512 0.399998H97.92V7.744H79.872L84.72 3.568L83.616 16.816L78.768 12.64H86.208C89.536 12.64 92.208 13.12 94.224 14.08C96.24 15.008 97.712 16.272 98.64 17.872C99.568 19.44 100.032 21.216 100.032 23.2C100.032 25.184 99.504 27.056 98.448 28.816C97.424 30.544 95.84 31.952 93.696 33.04C91.552 34.128 88.784 34.672 85.392 34.672Z" fill="#1178B2" fill-opacity="0.5"/>
<path d="M110.8 26V9.2H114.712L121.648 20.624H119.584L126.376 9.2H130.288L130.336 26H125.944L125.92 15.848H126.664L121.6 24.344H119.488L114.28 15.848H115.168V26H110.8ZM132.325 26L132.517 22.28C132.629 22.296 132.733 22.312 132.829 22.328C132.925 22.328 133.013 22.328 133.093 22.328C133.493 22.328 133.805 22.232 134.029 22.04C134.269 21.832 134.445 21.552 134.557 21.2C134.685 20.848 134.773 20.44 134.821 19.976C134.885 19.496 134.925 18.976 134.941 18.416L135.133 12.992H146.893V26H142.333V15.584L143.341 16.616H138.133L139.093 15.536L138.949 18.608C138.901 19.776 138.797 20.84 138.637 21.8C138.493 22.744 138.261 23.552 137.941 24.224C137.621 24.896 137.181 25.416 136.621 25.784C136.077 26.136 135.381 26.312 134.533 26.312C134.229 26.312 133.885 26.28 133.501 26.216C133.133 26.168 132.741 26.096 132.325 26ZM158.142 26.216C157.038 26.216 156.094 25.976 155.31 25.496C154.526 25 153.926 24.264 153.51 23.288C153.11 22.296 152.91 21.032 152.91 19.496C152.91 17.944 153.102 16.68 153.486 15.704C153.87 14.712 154.446 13.976 155.214 13.496C155.998 13.016 156.974 12.776 158.142 12.776C159.326 12.776 160.398 13.056 161.358 13.616C162.334 14.16 163.102 14.936 163.662 15.944C164.238 16.936 164.526 18.12 164.526 19.496C164.526 20.872 164.238 22.064 163.662 23.072C163.102 24.08 162.334 24.856 161.358 25.4C160.398 25.944 159.326 26.216 158.142 26.216ZM149.958 30.656V12.992H154.302V15.2L154.278 19.496L154.518 23.816V30.656H149.958ZM157.182 22.592C157.694 22.592 158.15 22.472 158.55 22.232C158.966 21.992 159.294 21.64 159.534 21.176C159.79 20.712 159.918 20.152 159.918 19.496C159.918 18.84 159.79 18.28 159.534 17.816C159.294 17.352 158.966 17 158.55 16.76C158.15 16.52 157.694 16.4 157.182 16.4C156.67 16.4 156.206 16.52 155.79 16.76C155.39 17 155.062 17.352 154.806 17.816C154.566 18.28 154.446 18.84 154.446 19.496C154.446 20.152 154.566 20.712 154.806 21.176C155.062 21.64 155.39 21.992 155.79 22.232C156.206 22.472 156.67 22.592 157.182 22.592ZM175.505 24.008V16.616H172.025L171.977 17.864C171.945 18.488 171.905 19.08 171.857 19.64C171.825 20.184 171.745 20.68 171.617 21.128C171.489 21.576 171.305 21.96 171.065 22.28C170.825 22.584 170.505 22.808 170.105 22.952L165.641 22.352C166.073 22.352 166.425 22.232 166.697 21.992C166.985 21.736 167.209 21.384 167.369 20.936C167.529 20.488 167.641 19.976 167.705 19.4C167.785 18.808 167.841 18.184 167.873 17.528L168.041 12.992H180.065V24.008H175.505ZM165.209 28.688V22.352H181.865V28.688H177.641V26H169.457V28.688H165.209Z" fill="#1178B2" fill-opacity="0.5"/>
</svg>
