<svg width="57" height="35" viewBox="0 0 57 35" fill="none" xmlns="http://www.w3.org/2000/svg">
<path d="M5.72 34L18.824 3.904L21.368 7.936H4.328L8.216 3.568V13.12H0.104V0.399998H27.944V6.352L16.088 34H5.72ZM41.9109 34.672C39.5749 34.672 37.2389 34.384 34.9029 33.808C32.5989 33.232 30.5829 32.416 28.8549 31.36L32.3109 24.208C33.6549 25.104 35.1429 25.792 36.7749 26.272C38.4389 26.752 40.0549 26.992 41.6229 26.992C43.2549 26.992 44.5509 26.688 45.5109 26.08C46.4709 25.472 46.9509 24.608 46.9509 23.488C46.9509 22.496 46.5509 21.712 45.7509 21.136C44.9509 20.528 43.6389 20.224 41.8149 20.224H37.8309V14.224L46.8549 4.48L47.7669 7.744H30.5829V0.399998H54.8709V6.352L45.8469 16.096L41.1909 13.456H43.7829C47.9749 13.456 51.1429 14.4 53.2869 16.288C55.4629 18.144 56.5509 20.544 56.5509 23.488C56.5509 25.408 56.0229 27.216 54.9669 28.912C53.9429 30.608 52.3589 32 50.2149 33.088C48.0709 34.144 45.3029 34.672 41.9109 34.672Z" fill="#1178B2" fill-opacity="0.5"/>
</svg>
