<svg width="98" height="60" viewBox="0 0 98 60" fill="none" xmlns="http://www.w3.org/2000/svg">
<path d="M25.44 59.12C20.64 59.12 16.3733 57.9733 12.64 55.68C8.96 53.3867 6.05333 50.08 3.92 45.76C1.78667 41.44 0.72 36.1867 0.72 30C0.72 23.8133 1.78667 18.56 3.92 14.24C6.05333 9.92 8.96 6.61333 12.64 4.32C16.3733 2.02666 20.64 0.879996 25.44 0.879996C30.1867 0.879996 34.4 2.02666 38.08 4.32C41.8133 6.61333 44.7467 9.92 46.88 14.24C49.0133 18.56 50.08 23.8133 50.08 30C50.08 36.1867 49.0133 41.44 46.88 45.76C44.7467 50.08 41.8133 53.3867 38.08 55.68C34.4 57.9733 30.1867 59.12 25.44 59.12ZM25.44 46.16C27.1467 46.16 28.64 45.6267 29.92 44.56C31.2533 43.4933 32.2933 41.7867 33.04 39.44C33.7867 37.04 34.16 33.8933 34.16 30C34.16 26.0533 33.7867 22.9067 33.04 20.56C32.2933 18.2133 31.2533 16.5067 29.92 15.44C28.64 14.3733 27.1467 13.84 25.44 13.84C23.7333 13.84 22.2133 14.3733 20.88 15.44C19.6 16.5067 18.56 18.2133 17.76 20.56C17.0133 22.9067 16.64 26.0533 16.64 30C16.64 33.8933 17.0133 37.04 17.76 39.44C18.56 41.7867 19.6 43.4933 20.88 44.56C22.2133 45.6267 23.7333 46.16 25.44 46.16ZM73.4244 59.12C69.531 59.12 65.6377 58.64 61.7444 57.68C57.9044 56.72 54.5444 55.36 51.6644 53.6L57.4244 41.68C59.6644 43.1733 62.1444 44.32 64.8644 45.12C67.6377 45.92 70.331 46.32 72.9444 46.32C75.6644 46.32 77.8244 45.8133 79.4244 44.8C81.0244 43.7867 81.8244 42.3467 81.8244 40.48C81.8244 38.8267 81.1577 37.52 79.8244 36.56C78.491 35.5467 76.3044 35.04 73.2644 35.04H66.6244V25.04L81.6644 8.8L83.1844 14.24H54.5444V2H95.0244V11.92L79.9844 28.16L72.2244 23.76H76.5444C83.531 23.76 88.811 25.3333 92.3844 28.48C96.011 31.5733 97.8244 35.5733 97.8244 40.48C97.8244 43.68 96.9444 46.6933 95.1844 49.52C93.4777 52.3467 90.8377 54.6667 87.2644 56.48C83.691 58.24 79.0777 59.12 73.4244 59.12Z" fill="#1178B2" fill-opacity="0.5"/>
</svg>
